<svg width="40" height="40" viewBox="0 0 40 40" fill="none" xmlns="http://www.w3.org/2000/svg">
<path d="M13.3333 11.3667V28.6333C13.3333 29.95 14.7833 30.75 15.8999 30.0333L29.4666 21.4C29.7041 21.2497 29.8998 21.0417 30.0353 20.7955C30.1709 20.5493 30.242 20.2727 30.242 19.9917C30.242 19.7106 30.1709 19.4341 30.0353 19.1878C29.8998 18.9416 29.7041 18.7336 29.4666 18.5833L15.8999 9.96666C15.6485 9.80407 15.3579 9.71234 15.0587 9.70115C14.7596 9.68996 14.4629 9.75973 14.2001 9.90309C13.9373 10.0465 13.718 10.2581 13.5654 10.5157C13.4129 10.7733 13.3327 11.0673 13.3333 11.3667V11.3667Z" fill="white"/>
</svg>
