<svg width="22" height="24" viewBox="0 0 22 24" fill="none" xmlns="http://www.w3.org/2000/svg">
<path d="M15.5833 3H4.58333C4.0971 3 3.63079 3.21071 3.28697 3.58579C2.94315 3.96086 2.75 4.46957 2.75 5V19C2.75 19.5304 2.94315 20.0391 3.28697 20.4142C3.63079 20.7893 4.0971 21 4.58333 21H17.4167C18.425 21 19.25 20.1 19.25 19V7L15.5833 3ZM11 19C9.47833 19 8.25 17.66 8.25 16C8.25 14.34 9.47833 13 11 13C12.5217 13 13.75 14.34 13.75 16C13.75 17.66 12.5217 19 11 19ZM13.75 9H4.58333V5H13.75V9Z" fill="#212121"/>
</svg>
